<?xml version="1.0" encoding="UTF-8"?>
<svg width="692px" height="121px" viewBox="0 0 692 121" version="1.1" xmlns="http://www.w3.org/2000/svg" xmlns:xlink="http://www.w3.org/1999/xlink">
    <title>logo-full</title>
    <g id="Page-1" stroke="none" stroke-width="1" fill="none" fill-rule="evenodd">
        <g id="logo-full" transform="translate(0, -26)" fill="#414141" fill-rule="nonzero">
            <g id="klatser" transform="translate(0, 26)">
                <path d="M38.5658691,120.179711 L78.6345682,0.0608658959 L40.0991619,0 L0,120.2 L38.5658691,120.179711 Z M90.2510385,77.0663685 L167.2,0.15216474 L112.864569,0.020288632 L89.8854852,22.9565871 C75.1618122,38.0411849 75.3039718,62.2759558 90.2510385,77.0663685 Z M133.406632,77.0359355 L90.3830438,77.1881003 L133.284781,120.05798 L133.406632,77.0359355 Z" id="Shape"></path>
            </g>
            <g id="Klatsers" transform="translate(200, -2)">
                <path d="M27.3768,139 L27.3768,106.3528 L43.188,87.4672 C56.5104,104.3032 67.344,120.8464 79.2024,139 L91.0608,139 C78.0312,118.3576 65.2944,99.3256 50.3616,80.1472 L86.2296,36.8128 L74.8104,36.8128 L27.3768,93.3232 L27.3768,36.8128 L17.2752,36.8128 L17.2752,139 L27.3768,139 Z" id="Path"></path>
                <path d="M102.952,125.9704 C102.952,136.9504 107.9296,140.0248 117.1528,140.0248 C119.9344,140.0248 122.1304,139.732 125.4976,139.1464 L125.4976,130.6552 C123.3016,131.2408 120.9592,131.5336 119.2024,131.5336 C115.1032,131.5336 112.9072,130.0696 112.9072,125.092 L112.9072,33.8848 L102.952,33.8848 L102.952,125.9704 Z" id="Path"></path>
                <path d="M189.3608,139 L189.3608,85.7104 C189.3608,70.0456 181.4552,63.3112 164.0336,63.3112 C157.0064,63.3112 147.1976,64.9216 138.4136,67.264 L138.4136,76.048 C146.3192,73.7056 154.9568,71.9488 164.0336,71.9488 C175.0136,71.9488 179.552,76.9264 179.552,86.8816 L179.552,97.276 L157.8848,97.276 C142.6592,97.276 134.0216,104.1568 134.0216,119.6752 C134.0216,134.4616 143.684,140.464 155.5424,140.464 C164.18,140.464 171.7928,137.6824 179.9912,129.7768 L179.9912,139 L189.3608,139 Z M156.86,132.2656 C149.2472,132.2656 143.5376,129.6304 143.5376,118.9432 C143.5376,108.6952 148.808,105.328 159.6416,105.328 L179.552,105.328 L179.552,120.9928 C171.9392,128.1664 165.0584,132.2656 156.86,132.2656 Z" id="Shape"></path>
                <path d="M248.1,64.7752 L223.944,64.7752 L223.944,45.1576 L216.1848,45.1576 L214.2816,64.7752 L201.3984,64.7752 L201.3984,72.8272 L214.1352,72.8272 L214.1352,122.0176 C214.1352,136.3648 221.3088,140.464 233.46,140.464 C237.9984,140.464 243.4152,139.8784 248.2464,138.8536 L248.2464,130.3624 C242.976,131.5336 239.6088,131.9728 234.7776,131.9728 C227.8968,131.9728 223.944,129.7768 223.944,120.7 L223.944,72.8272 L248.1,72.8272 L248.1,64.7752 Z" id="Path"></path>
                <path d="M281.6584,140.464 C298.6408,140.464 307.132,134.3152 307.132,119.8216 C307.132,92.4448 268.1896,102.8392 268.1896,83.6608 C268.1896,75.7552 273.6064,71.9488 284.0008,71.9488 C290.296,71.9488 297.9088,73.12 303.9112,75.0232 L303.9112,66.0928 C297.9088,64.336 291.3208,63.3112 283.8544,63.3112 C267.7504,63.3112 258.6736,70.924 258.6736,84.5392 C258.6736,111.7696 297.616,101.2288 297.616,120.7 C297.616,128.8984 292.9312,131.8264 282.244,131.8264 C275.0704,131.8264 267.7504,130.5088 259.2592,127.5808 L259.2592,136.804 C266.14,138.8536 273.1672,140.464 281.6584,140.464 Z" id="Path"></path>
                <path d="M353.8664,140.464 C361.3328,140.464 368.7992,139.4392 375.3872,137.6824 L375.3872,128.8984 C368.36,130.8016 361.4792,131.9728 354.5984,131.9728 C338.2016,131.9728 331.1744,124.0672 330.7352,103.864 L378.7544,103.864 C378.9008,101.3752 379.0472,97.276 379.0472,94.7872 C379.0472,73.4128 369.6776,63.3112 351.3776,63.3112 C331.1744,63.3112 320.6336,75.7552 320.6336,101.8144 C320.6336,128.6056 330.8816,140.464 353.8664,140.464 Z M351.2312,71.656 C362.9432,71.656 369.092,78.244 369.092,94.2016 L369.092,95.812 L330.8816,95.812 C332.0528,78.8296 338.348,71.656 351.2312,71.656 Z" id="Shape"></path>
                <path d="M407.7744,139 L407.7744,81.7576 C417.876,74.1448 422.268,72.8272 434.8584,72.8272 L434.8584,63.604 C434.1264,63.4576 431.9304,63.3112 430.7592,63.3112 C423.1464,63.3112 416.5584,65.5072 407.628,73.4128 L407.628,64.7752 L397.9656,64.7752 L397.9656,139 L407.7744,139 Z" id="Path"></path>
                <path d="M466.367199,140.464 C483.349599,140.464 491.840799,134.3152 491.840799,119.8216 C491.840799,92.4448 452.898399,102.8392 452.898399,83.6608 C452.898399,75.7552 458.315199,71.9488 468.709599,71.9488 C475.004799,71.9488 482.617599,73.12 488.619999,75.0232 L488.619999,66.0928 C482.617599,64.336 476.029599,63.3112 468.563199,63.3112 C452.459199,63.3112 443.382399,70.924 443.382399,84.5392 C443.382399,111.7696 482.324799,101.2288 482.324799,120.7 C482.324799,128.8984 477.639999,131.8264 466.952799,131.8264 C459.779199,131.8264 452.459199,130.5088 443.967999,127.5808 L443.967999,136.804 C450.848799,138.8536 457.875999,140.464 466.367199,140.464 Z" id="Path"></path>
            </g>
        </g>
    </g>
</svg>