<?xml version="1.0" encoding="UTF-8"?>
<svg width="327px" height="72px" viewBox="0 0 327 72" version="1.1" xmlns="http://www.w3.org/2000/svg" xmlns:xlink="http://www.w3.org/1999/xlink">
    <title>logo-full</title>
    <g id="Page-1" stroke="none" stroke-width="1" fill="none" fill-rule="evenodd">
        <g id="logo-full" fill-rule="nonzero">
            <g id="klatser" fill="#9EC89C">
                <path d="M23.1395214,71.9878471 L47.1807409,0.0364587729 L24.0594971,0 L0,72 L23.1395214,71.9878471 Z M54.1506231,46.1628829 L100.32,0.0911469322 L67.7187416,0.0121529243 L53.9312911,13.7510338 C45.0970873,22.7867331 45.1823831,37.3034011 54.1506231,46.1628829 Z M80.0439791,46.1446536 L54.2298263,46.2358005 L79.9708685,71.9149295 L80.0439791,46.1446536 Z" id="Shape"></path>
            </g>
            <g id="Klatsers" transform="translate(114, 11.4)" fill="#414141">
                <path d="M4.51785714,47.4 L4.51785714,32.6398281 L11.5892857,24.1014327 C17.547619,31.7131805 22.3928571,39.1925501 27.6964286,47.4 L33,47.4 C27.172619,38.0673352 21.4761905,29.4627507 14.797619,20.7919771 L30.8392857,1.2 L25.7321429,1.2 L4.51785714,26.7489971 L4.51785714,1.2 L0,1.2 L0,47.4 L4.51785714,47.4 Z" id="Path"></path>
                <path d="M38.4,41.6441379 C38.4,46.6096552 40.6519481,48 44.8246753,48 C46.0831169,48 47.0766234,47.8675862 48.6,47.6027586 L48.6,43.7627586 C47.6064935,44.0275862 46.5467532,44.16 45.7519481,44.16 C43.8974026,44.16 42.9038961,43.497931 42.9038961,41.2468966 L42.9038961,0 L38.4,0 L38.4,41.6441379 Z" id="Path"></path>
                <path d="M77.4,47.3396584 L77.4,23.3032258 C77.4,16.2375712 73.8,13.2 65.8666667,13.2 C62.6666667,13.2 58.2,13.9263757 54.2,14.9829222 L54.2,18.9449715 C57.8,17.888425 61.7333333,17.0960152 65.8666667,17.0960152 C70.8666667,17.0960152 72.9333333,19.3411765 72.9333333,23.8314991 L72.9333333,28.5199241 L63.0666667,28.5199241 C56.1333333,28.5199241 52.2,31.6235294 52.2,38.6231499 C52.2,45.2925996 56.6,48 62,48 C65.9333333,48 69.4,46.745351 73.1333333,43.1795066 L73.1333333,47.3396584 L77.4,47.3396584 Z M62.6,44.3020873 C59.1333333,44.3020873 56.5333333,43.1134725 56.5333333,38.2929791 C56.5333333,33.6705882 58.9333333,32.1518027 63.8666667,32.1518027 L72.9333333,32.1518027 L72.9333333,39.2174573 C69.4666667,42.4531309 66.3333333,44.3020873 62.6,44.3020873 Z" id="Shape"></path>
                <path d="M103.734375,14.1686636 L92.90625,14.1686636 L92.90625,5.4 L89.428125,5.4 L88.575,14.1686636 L82.8,14.1686636 L82.8,17.7677419 L88.509375,17.7677419 L88.509375,39.7548387 C88.509375,46.1677419 91.725,48 97.171875,48 C99.20625,48 101.634375,47.7382488 103.8,47.2801843 L103.8,43.4847926 C101.4375,44.0082949 99.928125,44.2046083 97.7625,44.2046083 C94.678125,44.2046083 92.90625,43.2230415 92.90625,39.1658986 L92.90625,17.7677419 L103.734375,17.7677419 L103.734375,14.1686636 Z" id="Path"></path>
                <path d="M118.845317,48 C126.415106,48 130.2,45.2265655 130.2,38.6891841 C130.2,26.340797 112.841692,31.029222 112.841692,22.3787476 C112.841692,18.8129032 115.256193,17.0960152 119.889426,17.0960152 C122.695468,17.0960152 126.088822,17.6242884 128.76435,18.4827324 L128.76435,14.454649 C126.088822,13.6622391 123.152266,13.2 119.824169,13.2 C112.645921,13.2 108.6,16.6337761 108.6,22.7749526 C108.6,35.0573055 125.958308,30.3028463 125.958308,39.085389 C125.958308,42.7833017 123.870091,44.1039848 119.106344,44.1039848 C115.908761,44.1039848 112.645921,43.5096774 108.861027,42.1889943 L108.861027,46.3491461 C111.928097,47.2736243 115.060423,48 118.845317,48 Z" id="Path"></path>
                <path d="M151.219549,48 C154.593985,48 157.968421,47.5377609 160.945865,46.745351 L160.945865,42.7833017 C157.769925,43.6417457 154.66015,44.170019 151.550376,44.170019 C144.13985,44.170019 140.96391,40.6041746 140.765414,31.4914611 L162.467669,31.4914611 C162.533835,30.3688805 162.6,28.5199241 162.6,27.3973435 C162.6,17.7563567 158.365414,13.2 150.094737,13.2 C140.96391,13.2 136.2,18.8129032 136.2,30.5669829 C136.2,42.6512334 140.831579,48 151.219549,48 Z M150.028571,16.9639469 C155.321805,16.9639469 158.100752,19.9354839 158.100752,27.1332068 L158.100752,27.8595825 L140.831579,27.8595825 C141.360902,20.1996205 144.206015,16.9639469 150.028571,16.9639469 Z" id="Shape"></path>
                <path d="M175.466667,47.4 L175.466667,21.5350097 C180.066667,18.0951644 182.066667,17.4998066 187.8,17.4998066 L187.8,13.3323017 C187.466667,13.2661509 186.466667,13.2 185.933333,13.2 C182.466667,13.2 179.466667,14.1922631 175.4,17.7644101 L175.4,13.8615087 L171,13.8615087 L171,47.4 L175.466667,47.4 Z" id="Path"></path>
                <path d="M201.645317,48 C209.215106,48 213,45.2265655 213,38.6891841 C213,26.340797 195.641692,31.029222 195.641692,22.3787476 C195.641692,18.8129032 198.056193,17.0960152 202.689426,17.0960152 C205.495468,17.0960152 208.888822,17.6242884 211.56435,18.4827324 L211.56435,14.454649 C208.888822,13.6622391 205.952266,13.2 202.624169,13.2 C195.445921,13.2 191.4,16.6337761 191.4,22.7749526 C191.4,35.0573055 208.758308,30.3028463 208.758308,39.085389 C208.758308,42.7833017 206.670091,44.1039848 201.906344,44.1039848 C198.708761,44.1039848 195.445921,43.5096774 191.661027,42.1889943 L191.661027,46.3491461 C194.728097,47.2736243 197.860423,48 201.645317,48 Z" id="Path"></path>
            </g>
        </g>
    </g>
</svg>